<svg id="Layer_1" data-name="Layer 1" xmlns="http://www.w3.org/2000/svg" viewBox="0 0 200 60"><defs><style>.cls-1{fill:#6a6a6a;}</style></defs><title>Untitled-1</title><path class="cls-1" d="M198.57,16.3a7.28,7.28,0,0,0-.85-1.32,16.2,16.2,0,0,0-1.39-1.55l-5-5.07L200,5.16l-.78-3.47L188,6V9.82l6.43,6.43a3.15,3.15,0,0,1,.8,1.07,2.89,2.89,0,0,1,.18,1,1.26,1.26,0,0,1-.35.92,1.75,1.75,0,0,1-1.28.38H182.55V18.05a9.41,9.41,0,0,0-.46-3.16,5.81,5.81,0,0,0-1.24-2.11A4.76,4.76,0,0,0,179,11.59a6.38,6.38,0,0,0-2.19-.37,5.76,5.76,0,0,0-2.52.52,5.56,5.56,0,0,0-1.82,1.42,6,6,0,0,0-1.1,2.05,8.22,8.22,0,0,0-.38,2.5,10.08,10.08,0,0,0,.26,2.38,4.1,4.1,0,0,0,.9,1.79A3.94,3.94,0,0,0,174,23a9.28,9.28,0,0,0,2.89.38h.54V19.62H177a3.25,3.25,0,0,1-2.1-.48,2.18,2.18,0,0,1-.52-1.67,2.85,2.85,0,0,1,.61-2,2.22,2.22,0,0,1,1.73-.68,2.41,2.41,0,0,1,1.86.72,3.63,3.63,0,0,1,.66,2.48v1.6h0l-.06,3.74a5.52,5.52,0,0,1-.41,1.75,4.07,4.07,0,0,1-1,1.44,4.18,4.18,0,0,1-1.55,1,6.15,6.15,0,0,1-2.22.36h-3.47l.2,3.71h3.44a8.22,8.22,0,0,0,3.36-.66,8,8,0,0,0,4.25-4.41,9.12,9.12,0,0,0,.68-3.16h11.67a7.25,7.25,0,0,0,2-.26,4.13,4.13,0,0,0,1.56-.8,3.79,3.79,0,0,0,1.05-1.39,4.88,4.88,0,0,0,.4-2,7,7,0,0,0-.12-1.31A4.82,4.82,0,0,0,198.57,16.3Z"/><rect class="cls-1" x="25.04" y="50.99" width="4.81" height="4.81" rx="1.31"/><rect class="cls-1" y="31.94" width="5.72" height="5.72" rx="1.31"/><rect class="cls-1" x="8.13" y="19.96" width="6.35" height="6.35" rx="1.31"/><path class="cls-1" d="M64.28,44.8a21.82,21.82,0,0,0,6.09-8.09,25.47,25.47,0,0,0,2-10.22A26.06,26.06,0,0,0,70.67,17a22.36,22.36,0,0,0-5-7.68,23.59,23.59,0,0,0-7.83-5.12A26.38,26.38,0,0,0,47.67,2.27a27.88,27.88,0,0,0-9.23,1.46,4.27,4.27,0,0,1,.27,1.48v3.5a4.18,4.18,0,0,1-4.18,4.18H31a4.17,4.17,0,0,1-3.28-1.59,22.62,22.62,0,0,0-2.68,4.48h4.77a3.65,3.65,0,0,1,3.64,3.64v7.72a3.65,3.65,0,0,1-3.64,3.64h-6a1.68,1.68,0,0,0-.63.12,25.25,25.25,0,0,0,1.07,4.17,3.87,3.87,0,0,1,2.65-1h6.43a3.88,3.88,0,0,1,3.87,3.87v4.49a1.88,1.88,0,0,0,.54,1.33l2.32,2.35a1.91,1.91,0,0,0,1.35.57h1.28a3.88,3.88,0,0,1,3.87,3.75c.35,0,.71,0,1.07,0,.83,0,1.66,0,2.47,0a12.76,12.76,0,0,0,2.25-.26l5.1,5.61a6.86,6.86,0,0,0,3.17,2,14.6,14.6,0,0,0,4.21.56H76.75ZM55.35,36c-1.73,2.26-4.29,3.4-7.68,3.4S41.7,38.27,40,36s-2.62-5.44-2.62-9.52S38.2,19,40,16.71s4.33-3.51,7.72-3.51,5.95,1.17,7.68,3.51,2.58,5.6,2.58,9.78S57.07,33.75,55.35,36Z"/><rect class="cls-1" x="28.82" y="3" width="7.92" height="7.92" rx="2.21"/><path class="cls-1" d="M18.65,50.74H18a2,2,0,0,1-1.44-.6l-1.2-1.22a2,2,0,0,1-.58-1.41V45.17a1,1,0,0,0-1-1H10.44a1,1,0,0,0-1,1v3.41a1,1,0,0,0,1,1h2.29a2,2,0,0,1,1.43.6l1.2,1.22a2,2,0,0,1,.58,1.41v.7a1,1,0,0,0,1,1h1.72a1,1,0,0,0,1-1V51.73A1,1,0,0,0,18.65,50.74Z"/><path class="cls-1" d="M42.73,48.6H41.45a3.92,3.92,0,0,1-2.76-1.15L36.38,45.1a3.85,3.85,0,0,1-1.11-2.72V37.89a1.9,1.9,0,0,0-1.9-1.9H26.94a1.9,1.9,0,0,0-1.9,1.9v6.55a1.9,1.9,0,0,0,1.9,1.9h4.4A3.87,3.87,0,0,1,34.1,47.5l2.31,2.34a3.87,3.87,0,0,1,1.11,2.71v1.36a1.91,1.91,0,0,0,1.9,1.9h3.31a1.91,1.91,0,0,0,1.9-1.9V50.5A1.9,1.9,0,0,0,42.73,48.6Z"/><path class="cls-1" d="M29.84,28.81a1.67,1.67,0,0,0,1.67-1.67V19.42a1.67,1.67,0,0,0-1.67-1.67h-6a3.59,3.59,0,0,1-2.4-.91l-2-1.78a3.64,3.64,0,0,1-1.24-2.74V11.05a1.68,1.68,0,0,0-1.68-1.67H13.32a1.67,1.67,0,0,0-1.67,1.67v3.12a1.67,1.67,0,0,0,1.67,1.67h1.45a3.63,3.63,0,0,1,2.4.9l2,1.78a3.64,3.64,0,0,1,1.24,2.74v4.11A3.62,3.62,0,0,1,19.38,28l-1.53,1.53a3.65,3.65,0,0,1-2.58,1.06H11.82a1.68,1.68,0,0,0-1.68,1.67v5.28a1.68,1.68,0,0,0,1.68,1.67h5.27a1.68,1.68,0,0,0,1.68-1.67v-3.6a3.64,3.64,0,0,1,1.06-2.57l1.45-1.45a3.64,3.64,0,0,1,2.57-1.06Z"/><rect class="cls-1" x="84.52" y="2.27" width="3.47" height="21.09"/><rect class="cls-1" x="145.42" y="6.08" width="3.54" height="3.33"/><rect class="cls-1" x="140.56" y="6.08" width="3.54" height="3.33"/><rect class="cls-1" x="154.27" y="5.95" width="3.84" height="3.47"/><path class="cls-1" d="M147,22.93a6.06,6.06,0,0,0,2.34.43h4.42a5.38,5.38,0,0,0,4-1.45,5.82,5.82,0,0,0,1.42-4.27V13.39H155.7v4a2,2,0,0,1-2.28,2.21h-4a2.9,2.9,0,0,1-1.71-.51,1.92,1.92,0,0,1-.73-1.7v-4h-3.51v4a2,2,0,0,1-2.28,2.21h-42a2.52,2.52,0,0,1-1.68-.55,2,2,0,0,1-.67-1.63V13.39H93.32v9.42a6,6,0,0,1-.3,1.87,4.46,4.46,0,0,1-1,1.64,5,5,0,0,1-1.75,1.14,7.12,7.12,0,0,1-2.6.42H86.25l.17,3.71h2.14a7.68,7.68,0,0,0,3.22-.68A8,8,0,0,0,94.33,29,9.11,9.11,0,0,0,96,26.25a9.5,9.5,0,0,0,.61-3.44v-.57a2.32,2.32,0,0,0,1.16.9,4.6,4.6,0,0,0,1.36.22h42a5.17,5.17,0,0,0,2.11-.43,4.38,4.38,0,0,0,1.84-1.71A3.88,3.88,0,0,0,147,22.93Z"/><rect class="cls-1" x="163.31" y="2.27" width="3.47" height="21.09"/><path class="cls-1" d="M96.9,49.77a5.35,5.35,0,0,1-1.15,3.6,4.09,4.09,0,0,1-3.26,1.34,4,4,0,0,1-3.25-1.36,5.27,5.27,0,0,1-1.17-3.58V38.31H84.52V49.77A8.87,8.87,0,0,0,85.07,53a6.82,6.82,0,0,0,1.59,2.5,7.36,7.36,0,0,0,2.51,1.63,8.73,8.73,0,0,0,3.32.59,8.82,8.82,0,0,0,3.33-.59,7.36,7.36,0,0,0,2.53-1.63A7,7,0,0,0,99.94,53a9.09,9.09,0,0,0,.54-3.19V38.31H96.9Z"/><path class="cls-1" d="M111.18,38.31l-7.59,19.17h2.77a1.09,1.09,0,0,0,.87-.48,5,5,0,0,0,.58-.9L109,52.69h8l1.24,3.41a2.79,2.79,0,0,0,.52.92,1.09,1.09,0,0,0,.86.46h2.77l-7.59-19.17Zm-1.32,11.95,2-5.6q.28-.66.57-1.47a17.11,17.11,0,0,0,.52-1.67c.16.56.34,1.11.54,1.66s.4,1,.59,1.48l2,5.6Z"/><path class="cls-1" d="M138.89,50.21c0,.27,0,.54,0,.82s0,.55.07.82l-10.16-13a1.16,1.16,0,0,0-.5-.46,2.07,2.07,0,0,0-.68-.09h-1.88V57.48h3.15v-12a14.71,14.71,0,0,0-.09-1.56l10.11,13a1.89,1.89,0,0,0,.54.45,1.48,1.48,0,0,0,.67.13H142V38.31h-3.09Z"/><polygon class="cls-1" points="145.89 41.14 151.72 41.14 151.72 57.48 155.28 57.48 155.28 41.14 161.08 41.14 161.08 38.31 145.89 38.31 145.89 41.14"/><path class="cls-1" d="M174.56,49.67a4.08,4.08,0,0,0-.7-.47,6.09,6.09,0,0,0,3.21-2,5.31,5.31,0,0,0,1.15-3.42,5.7,5.7,0,0,0-.42-2.22,4.37,4.37,0,0,0-1.32-1.74,6.28,6.28,0,0,0-2.29-1.11,12.61,12.61,0,0,0-3.34-.39h-5.91V57.48h3.55V49.92h1.56a1.52,1.52,0,0,1,.8.16,1.55,1.55,0,0,1,.49.47l4.1,6.24a1.36,1.36,0,0,0,1.3.69H180l-4.82-7.13A2.71,2.71,0,0,0,174.56,49.67Zm-3.76-2.23h-2.31V41h2.36q3.9,0,3.9,3.06a3.26,3.26,0,0,1-1,2.45A4.07,4.07,0,0,1,170.8,47.44Z"/><path class="cls-1" d="M192.41,38.31H188.8l-7.59,19.17H184a1.07,1.07,0,0,0,.86-.48,4.51,4.51,0,0,0,.58-.9l1.21-3.41h8l1.24,3.41a3,3,0,0,0,.52.92,1.09,1.09,0,0,0,.87.46H200Zm-4.94,11.95,2-5.6c.19-.44.39-.93.58-1.47s.36-1.09.52-1.67c.15.56.33,1.11.53,1.66s.4,1,.59,1.48l2,5.6Z"/></svg>